<?xml version="1.0" encoding="UTF-8"?>
<!DOCTYPE svg PUBLIC "-//W3C//DTD SVG 1.1//EN" "http://www.w3.org/Graphics/SVG/1.1/DTD/svg11.dtd">
<svg xmlns="http://www.w3.org/2000/svg" version="1.1" width="1080px" height="1080px" style="shape-rendering:geometricPrecision; text-rendering:geometricPrecision; image-rendering:optimizeQuality; fill-rule:evenodd; clip-rule:evenodd" xmlns:xlink="http://www.w3.org/1999/xlink">
<g><path style="opacity:0.994" fill="#3456d5" d="M 537.5,57.5 C 540.016,57.7553 542.35,58.5886 544.5,60C 704.753,152.281 864.92,244.781 1025,337.5C 1025.67,416.167 1025.67,494.833 1025,573.5C 863.554,479.567 701.721,386.234 539.5,293.5C 377.354,386.071 215.687,479.404 54.5,573.5C 53.3334,494.835 53.1667,416.169 54,337.5C 215.539,244.491 376.706,151.158 537.5,57.5 Z"/></g>
<g><path style="opacity:0.994" fill="#3456d5" d="M 536.5,383.5 C 537.873,383.343 539.207,383.51 540.5,384C 702.301,476.489 863.801,569.656 1025,663.5C 1025.83,712.208 1025.66,760.874 1024.5,809.5C 999.288,825.273 973.622,840.273 947.5,854.5C 817.009,780.091 687.009,704.924 557.5,629C 551.203,625.851 544.87,622.685 538.5,619.5C 402.734,697.646 267.068,775.979 131.5,854.5C 105.327,840.161 79.4937,825.161 54,809.5C 53.3333,760.833 53.3333,712.167 54,663.5C 202.989,576.805 352.155,490.638 501.5,405C 513.318,398.002 524.985,390.835 536.5,383.5 Z"/></g>
<g><path style="opacity:0.992" fill="#3457d5" d="M 537.5,714.5 C 608.358,754.167 678.692,794.667 748.5,836C 781.402,854.855 814.402,873.521 847.5,892C 853.903,896.192 860.237,900.359 866.5,904.5C 808.231,938.306 749.898,972.139 691.5,1006C 682.114,1011.69 672.448,1016.86 662.5,1021.5C 621.201,998.028 580.034,974.361 539,950.5C 498.415,974.544 457.582,998.211 416.5,1021.5C 380.199,1001.01 343.865,980.514 307.5,960C 275.823,941.495 244.156,922.995 212.5,904.5C 212.977,903.522 213.643,902.689 214.5,902C 304.568,849.791 394.902,797.791 485.5,746C 500.085,736.543 515.085,727.877 530.5,720C 532.903,718.147 535.236,716.314 537.5,714.5 Z"/></g>
</svg>
