<svg id="svg" version="1.1" xmlns="http://www.w3.org/2000/svg" xmlns:xlink="http://www.w3.org/1999/xlink" width="400" height="133.33333333333334" viewBox="0, 0, 400,133.33333333333334"><g id="svgg"><path id="path0" d="M54.582 9.836 C 54.526 9.926,53.922 10.000,53.240 10.000 C 52.558 10.000,52.000 10.065,52.000 10.145 C 52.000 10.225,51.325 10.343,50.500 10.408 C 49.675 10.472,49.000 10.585,49.000 10.658 C 49.000 10.731,48.477 10.842,47.837 10.905 C 47.198 10.968,46.631 11.090,46.577 11.176 C 46.524 11.263,46.264 11.333,46.000 11.333 C 45.736 11.333,45.478 11.401,45.426 11.484 C 45.375 11.567,44.958 11.687,44.500 11.750 C 44.042 11.813,43.630 11.924,43.586 11.996 C 43.541 12.069,43.167 12.179,42.756 12.240 C 42.344 12.302,41.964 12.423,41.911 12.510 C 41.857 12.596,41.631 12.667,41.407 12.667 C 41.183 12.667,41.000 12.732,41.000 12.812 C 41.000 12.892,40.700 13.005,40.333 13.064 C 39.967 13.123,39.667 13.245,39.667 13.335 C 39.667 13.426,39.498 13.500,39.292 13.501 C 39.085 13.502,38.702 13.614,38.439 13.751 C 38.177 13.888,37.858 14.000,37.731 14.000 C 37.604 14.000,37.500 14.069,37.500 14.153 C 37.500 14.238,37.273 14.357,36.996 14.417 C 36.720 14.478,35.913 14.821,35.205 15.180 C 34.496 15.539,33.823 15.832,33.708 15.833 C 33.594 15.833,33.500 15.891,33.500 15.960 C 33.500 16.030,33.356 16.162,33.180 16.252 C 33.004 16.343,32.348 16.678,31.722 16.997 C 30.673 17.531,29.199 18.445,29.000 18.683 C 28.954 18.738,28.842 18.814,28.750 18.852 C 28.289 19.041,26.333 20.390,26.333 20.519 C 26.333 20.600,26.221 20.667,26.083 20.667 C 25.946 20.667,25.833 20.727,25.833 20.800 C 25.833 20.873,25.492 21.149,25.075 21.413 C 24.658 21.676,24.265 21.977,24.200 22.081 C 24.136 22.185,23.925 22.378,23.732 22.510 C 22.386 23.428,19.303 26.468,17.994 28.167 C 17.677 28.579,17.323 28.977,17.208 29.050 C 17.094 29.123,17.000 29.260,17.000 29.353 C 17.000 29.540,16.156 30.718,15.958 30.806 C 15.890 30.836,15.833 30.962,15.833 31.085 C 15.833 31.209,15.739 31.409,15.625 31.530 C 15.510 31.651,15.266 32.050,15.083 32.417 C 14.900 32.783,14.708 33.121,14.658 33.167 C 14.454 33.350,13.500 35.337,13.500 35.577 C 13.500 35.718,13.433 35.833,13.352 35.833 C 13.270 35.833,13.155 36.096,13.094 36.417 C 13.034 36.737,12.913 37.000,12.826 37.000 C 12.738 37.000,12.667 37.141,12.667 37.314 C 12.667 37.487,12.555 37.843,12.418 38.106 C 12.281 38.369,12.168 38.752,12.168 38.958 C 12.167 39.165,12.097 39.333,12.012 39.333 C 11.927 39.333,11.806 39.746,11.743 40.250 C 11.680 40.754,11.570 41.167,11.499 41.167 C 11.356 41.167,11.272 41.562,10.961 43.695 C 10.845 44.490,10.694 45.196,10.625 45.265 C 10.450 45.438,10.468 54.167,10.643 54.167 C 10.721 54.167,10.836 54.776,10.898 55.522 C 10.961 56.267,11.084 57.012,11.172 57.177 C 11.261 57.343,11.333 57.708,11.333 57.989 C 11.333 58.270,11.400 58.500,11.481 58.500 C 11.562 58.500,11.680 58.913,11.743 59.417 C 11.806 59.921,11.927 60.333,12.012 60.333 C 12.097 60.333,12.167 60.482,12.167 60.663 C 12.167 61.023,12.658 62.366,12.839 62.500 C 12.901 62.546,13.004 62.865,13.067 63.208 C 13.130 63.552,13.236 63.833,13.302 63.833 C 13.368 63.833,13.555 64.208,13.718 64.667 C 13.881 65.125,14.080 65.500,14.160 65.500 C 14.241 65.500,14.356 65.725,14.417 66.000 C 14.477 66.275,14.596 66.500,14.680 66.500 C 14.764 66.500,14.833 66.586,14.833 66.690 C 14.833 66.874,16.626 69.830,16.840 70.000 C 16.898 70.046,17.014 70.204,17.098 70.352 C 17.590 71.223,22.750 76.667,23.082 76.667 C 23.150 76.667,23.478 76.894,23.811 77.172 C 24.144 77.451,24.492 77.732,24.583 77.797 C 24.675 77.863,25.026 78.123,25.364 78.375 C 25.702 78.627,26.049 78.833,26.135 78.833 C 26.222 78.833,26.373 78.930,26.471 79.048 C 26.569 79.166,27.159 79.523,27.783 79.840 C 28.406 80.157,28.954 80.454,29.000 80.500 C 29.247 80.747,30.182 81.167,30.484 81.167 C 30.676 81.167,30.833 81.242,30.833 81.333 C 30.833 81.425,30.927 81.502,31.042 81.504 C 31.156 81.506,31.700 81.729,32.250 82.000 C 32.800 82.271,33.414 82.494,33.615 82.496 C 33.816 82.498,34.025 82.573,34.080 82.662 C 34.135 82.751,34.552 82.873,35.007 82.933 C 35.461 82.994,35.833 83.108,35.833 83.188 C 35.833 83.268,36.081 83.333,36.383 83.333 C 36.686 83.333,37.005 83.404,37.092 83.491 C 37.179 83.578,37.775 83.702,38.417 83.766 C 39.058 83.830,39.635 83.963,39.698 84.060 C 39.864 84.315,49.312 84.315,49.849 84.059 C 50.070 83.955,50.813 83.783,51.500 83.679 C 52.188 83.574,53.031 83.446,53.375 83.394 C 53.719 83.341,54.000 83.240,54.000 83.168 C 54.000 83.096,54.336 82.987,54.746 82.926 C 55.156 82.864,55.536 82.743,55.589 82.657 C 55.643 82.571,55.851 82.500,56.052 82.499 C 56.252 82.498,56.631 82.386,56.894 82.249 C 57.157 82.112,57.513 82.000,57.686 82.000 C 57.859 82.000,58.000 81.933,58.000 81.851 C 58.000 81.770,58.204 81.652,58.453 81.589 C 59.070 81.434,60.737 80.642,60.806 80.472 C 60.836 80.396,60.968 80.333,61.098 80.333 C 61.481 80.333,64.866 78.257,65.167 77.838 C 65.212 77.774,65.371 77.653,65.519 77.569 C 66.440 77.048,69.500 74.210,69.500 73.878 C 69.500 73.784,69.603 73.622,69.728 73.518 C 70.058 73.244,71.000 71.272,71.000 70.855 C 71.000 70.660,71.067 70.500,71.148 70.500 C 71.407 70.500,71.544 69.318,71.544 67.083 C 71.544 64.849,71.407 63.667,71.148 63.667 C 71.067 63.667,71.000 63.491,71.000 63.277 C 71.000 62.862,70.084 60.900,69.718 60.530 C 69.598 60.409,69.500 60.246,69.500 60.169 C 69.500 59.942,66.952 57.500,66.715 57.500 C 66.597 57.500,66.500 57.426,66.500 57.337 C 66.500 57.247,66.313 57.126,66.083 57.068 C 65.854 57.011,65.667 56.897,65.667 56.815 C 65.667 56.734,65.554 56.667,65.417 56.667 C 65.279 56.667,65.167 56.595,65.167 56.508 C 65.167 56.420,64.885 56.297,64.542 56.234 C 64.198 56.170,63.875 56.055,63.824 55.977 C 63.773 55.899,63.267 55.786,62.699 55.727 C 62.131 55.668,61.667 55.555,61.667 55.476 C 61.667 55.398,60.954 55.333,60.083 55.333 C 59.212 55.333,58.500 55.398,58.500 55.476 C 58.500 55.555,57.984 55.667,57.354 55.725 C 56.723 55.784,55.992 55.944,55.729 56.082 C 55.465 56.219,55.156 56.332,55.042 56.332 C 54.927 56.333,54.833 56.408,54.833 56.500 C 54.833 56.592,54.721 56.667,54.583 56.667 C 54.446 56.667,54.333 56.734,54.333 56.815 C 54.333 56.897,54.146 57.011,53.917 57.068 C 53.688 57.126,53.500 57.247,53.500 57.337 C 53.500 57.426,53.397 57.500,53.270 57.500 C 53.144 57.500,52.938 57.624,52.812 57.775 C 52.104 58.629,49.266 60.327,48.542 60.331 C 48.335 60.332,48.167 60.408,48.167 60.500 C 48.167 60.592,47.942 60.667,47.667 60.667 C 47.392 60.667,47.167 60.742,47.167 60.833 C 47.167 60.936,46.361 61.000,45.083 61.000 C 43.806 61.000,43.000 60.936,43.000 60.833 C 43.000 60.742,42.719 60.664,42.375 60.661 C 42.031 60.658,41.604 60.546,41.426 60.411 C 41.249 60.277,40.930 60.167,40.718 60.167 C 40.506 60.167,40.333 60.098,40.333 60.013 C 40.333 59.929,40.108 59.810,39.833 59.750 C 39.558 59.690,39.333 59.587,39.333 59.523 C 39.333 59.458,39.090 59.264,38.792 59.091 C 38.494 58.918,38.190 58.676,38.117 58.555 C 38.043 58.433,37.875 58.333,37.742 58.333 C 37.609 58.333,37.499 58.277,37.498 58.208 C 37.497 58.140,37.123 57.671,36.667 57.167 C 36.211 56.663,35.837 56.160,35.836 56.050 C 35.834 55.940,35.736 55.790,35.616 55.717 C 35.386 55.576,34.833 54.493,34.833 54.183 C 34.833 54.082,34.763 54.000,34.677 54.000 C 34.591 54.000,34.470 53.662,34.408 53.248 C 34.346 52.834,34.229 52.455,34.147 52.405 C 34.066 52.355,34.000 51.981,34.000 51.573 C 34.000 51.166,33.925 50.833,33.833 50.833 C 33.739 50.833,33.667 50.361,33.667 49.750 C 33.667 49.154,33.734 48.667,33.817 48.667 C 33.899 48.667,34.003 48.348,34.048 47.958 C 34.236 46.338,35.169 44.194,36.123 43.196 C 36.239 43.075,36.335 42.925,36.336 42.863 C 36.340 42.721,37.790 41.167,37.919 41.167 C 38.030 41.167,38.326 40.926,38.992 40.292 C 39.258 40.040,39.550 39.833,39.642 39.833 C 39.734 39.833,39.957 39.646,40.137 39.417 C 40.317 39.188,40.542 39.000,40.637 39.000 C 40.732 39.000,40.912 38.906,41.037 38.792 C 41.369 38.488,41.875 38.171,42.208 38.059 C 42.369 38.005,42.500 37.901,42.500 37.827 C 42.500 37.753,42.725 37.644,43.000 37.583 C 43.275 37.523,43.500 37.404,43.500 37.320 C 43.500 37.236,43.607 37.167,43.738 37.167 C 43.869 37.167,44.075 37.070,44.196 36.952 C 44.456 36.699,45.554 36.167,45.817 36.167 C 45.918 36.167,46.000 36.092,46.000 36.000 C 46.000 35.908,46.120 35.833,46.266 35.833 C 46.413 35.833,46.769 35.730,47.058 35.603 C 47.347 35.476,47.857 35.251,48.192 35.103 C 48.527 34.955,48.958 34.833,49.150 34.833 C 49.343 34.833,49.500 34.768,49.500 34.688 C 49.500 34.608,49.872 34.494,50.326 34.433 C 50.781 34.373,51.198 34.251,51.253 34.162 C 51.308 34.073,51.574 34.000,51.843 34.000 C 52.113 34.000,52.333 33.937,52.333 33.860 C 52.333 33.715,54.053 33.450,56.917 33.154 C 58.689 32.971,64.463 33.100,64.750 33.330 C 64.842 33.403,65.535 33.517,66.292 33.582 C 67.048 33.648,67.667 33.769,67.667 33.851 C 67.667 33.933,67.825 34.000,68.019 34.000 C 68.369 34.000,69.834 34.426,70.354 34.679 C 70.504 34.751,70.898 34.862,71.231 34.924 C 71.564 34.987,71.878 35.104,71.928 35.186 C 71.979 35.267,72.165 35.333,72.343 35.333 C 72.521 35.333,72.667 35.405,72.667 35.492 C 72.667 35.580,72.929 35.701,73.250 35.761 C 73.571 35.821,73.833 35.934,73.833 36.011 C 73.833 36.088,74.096 36.201,74.417 36.261 C 74.737 36.321,75.000 36.437,75.000 36.519 C 75.000 36.600,75.150 36.667,75.333 36.667 C 75.517 36.667,75.667 36.725,75.667 36.795 C 75.667 36.866,75.948 37.068,76.292 37.244 C 77.476 37.851,79.333 39.035,79.333 39.184 C 79.333 39.266,79.413 39.333,79.511 39.333 C 79.686 39.333,80.645 39.992,81.200 40.494 C 81.695 40.941,81.984 41.167,82.060 41.167 C 82.101 41.167,82.889 41.922,83.812 42.844 C 85.254 44.286,85.848 44.953,86.749 46.138 C 86.841 46.260,87.123 46.590,87.375 46.871 C 87.627 47.152,87.833 47.484,87.833 47.608 C 87.833 47.732,87.903 47.833,87.989 47.833 C 88.074 47.833,88.188 47.970,88.241 48.137 C 88.294 48.304,88.468 48.586,88.627 48.763 C 88.903 49.070,89.536 50.153,89.910 50.957 C 90.005 51.163,90.134 51.331,90.195 51.332 C 90.257 51.333,90.356 51.558,90.417 51.833 C 90.477 52.108,90.596 52.333,90.680 52.333 C 90.764 52.333,90.833 52.469,90.833 52.635 C 90.833 52.801,90.943 53.082,91.078 53.260 C 91.213 53.438,91.325 53.715,91.328 53.875 C 91.331 54.035,91.402 54.167,91.485 54.167 C 91.569 54.167,91.688 54.467,91.750 54.833 C 91.812 55.200,91.931 55.500,92.015 55.500 C 92.098 55.500,92.166 55.631,92.166 55.792 C 92.165 56.092,92.604 57.543,92.840 58.017 C 92.913 58.164,93.021 58.652,93.081 59.101 C 93.141 59.549,93.257 60.067,93.340 60.250 C 93.767 61.194,94.218 70.108,93.862 70.558 C 93.778 70.664,93.658 71.424,93.593 72.247 C 93.529 73.071,93.416 73.821,93.342 73.914 C 93.268 74.007,93.156 74.513,93.092 75.039 C 93.029 75.565,92.907 76.038,92.822 76.091 C 92.736 76.143,92.667 76.365,92.667 76.583 C 92.667 76.802,92.598 77.023,92.515 77.074 C 92.431 77.126,92.312 77.468,92.250 77.833 C 92.188 78.199,92.078 78.535,92.004 78.581 C 91.931 78.626,91.822 78.926,91.761 79.248 C 91.701 79.570,91.580 79.833,91.492 79.833 C 91.405 79.833,91.333 79.965,91.333 80.125 C 91.332 80.285,91.108 80.867,90.833 81.417 C 90.559 81.967,90.334 82.510,90.334 82.625 C 90.334 82.740,90.258 82.833,90.167 82.833 C 90.075 82.833,90.000 82.909,90.000 83.002 C 90.000 83.151,88.307 85.991,87.964 86.417 C 87.890 86.508,87.604 86.883,87.329 87.250 C 87.054 87.617,86.549 88.246,86.206 88.648 C 85.864 89.051,85.452 89.538,85.292 89.732 C 84.753 90.381,82.766 92.333,82.644 92.333 C 82.577 92.333,82.476 92.479,82.419 92.658 C 82.363 92.837,82.158 93.033,81.965 93.094 C 81.605 93.209,77.614 97.139,76.417 98.557 C 76.050 98.992,75.600 99.518,75.417 99.726 C 75.233 99.934,74.933 100.317,74.750 100.576 C 74.567 100.836,74.210 101.291,73.958 101.588 C 73.706 101.885,73.500 102.205,73.500 102.300 C 73.500 102.395,73.443 102.497,73.373 102.528 C 73.250 102.581,71.448 105.269,70.696 106.520 C 70.496 106.851,70.333 107.239,70.333 107.381 C 70.333 107.523,70.277 107.664,70.208 107.694 C 70.034 107.772,69.000 109.989,69.000 110.286 C 69.000 110.369,68.857 110.734,68.681 111.097 C 68.506 111.459,68.309 112.055,68.243 112.420 C 68.177 112.785,68.042 113.185,67.943 113.310 C 67.663 113.661,67.692 118.988,67.976 119.598 C 68.627 120.995,68.791 121.270,69.255 121.739 C 70.088 122.581,70.505 122.855,71.101 122.952 C 71.412 123.002,71.667 123.100,71.667 123.168 C 71.667 123.278,72.240 123.373,74.126 123.574 C 74.424 123.606,74.710 123.565,74.761 123.483 C 74.811 123.401,75.261 123.333,75.760 123.333 C 76.259 123.333,76.667 123.266,76.667 123.183 C 76.667 123.100,77.117 122.980,77.667 122.917 C 78.217 122.853,78.709 122.733,78.760 122.650 C 78.811 122.568,78.968 122.500,79.110 122.500 C 79.251 122.500,79.640 122.379,79.975 122.230 C 80.309 122.082,80.846 121.849,81.167 121.713 C 82.204 121.273,83.729 120.507,84.583 119.996 C 85.042 119.721,85.548 119.451,85.708 119.396 C 85.869 119.340,86.000 119.228,86.000 119.147 C 86.000 119.066,86.107 119.000,86.238 119.000 C 86.369 119.000,86.575 118.906,86.696 118.791 C 86.818 118.676,87.198 118.434,87.542 118.253 C 87.885 118.072,88.167 117.866,88.167 117.795 C 88.167 117.725,88.250 117.667,88.351 117.667 C 88.546 117.667,89.877 116.675,89.972 116.460 C 90.003 116.390,90.101 116.333,90.190 116.333 C 90.329 116.333,91.580 115.438,91.833 115.158 C 91.879 115.107,92.198 114.895,92.542 114.686 C 92.885 114.477,93.167 114.237,93.167 114.153 C 93.167 114.069,93.273 114.000,93.403 114.000 C 93.533 114.000,93.664 113.939,93.694 113.864 C 93.725 113.789,94.162 113.394,94.667 112.985 C 95.171 112.576,95.771 112.079,96.000 111.881 C 96.576 111.382,97.125 110.915,97.977 110.196 C 99.575 108.850,104.143 104.108,104.319 103.614 C 104.357 103.507,104.637 103.157,104.942 102.835 C 105.248 102.513,105.498 102.205,105.499 102.151 C 105.499 102.096,105.690 101.834,105.923 101.568 C 106.156 101.301,106.508 100.821,106.706 100.500 C 106.904 100.179,107.108 99.879,107.159 99.833 C 107.438 99.583,108.135 98.531,108.239 98.203 C 108.305 97.994,108.527 97.642,108.732 97.421 C 108.936 97.200,109.249 96.733,109.427 96.385 C 109.605 96.036,109.919 95.518,110.125 95.234 C 110.331 94.951,110.500 94.594,110.500 94.443 C 110.500 94.291,110.567 94.167,110.649 94.167 C 110.730 94.167,110.849 93.961,110.912 93.710 C 110.975 93.459,111.077 93.215,111.138 93.168 C 111.350 93.008,111.833 92.032,111.833 91.766 C 111.833 91.620,111.902 91.500,111.987 91.500 C 112.071 91.500,112.189 91.276,112.250 91.002 C 112.310 90.728,112.428 90.461,112.513 90.409 C 112.597 90.356,112.667 90.168,112.667 89.990 C 112.667 89.812,112.736 89.667,112.820 89.667 C 112.904 89.667,113.024 89.437,113.086 89.155 C 113.148 88.874,113.303 88.443,113.431 88.197 C 113.560 87.951,113.665 87.581,113.666 87.375 C 113.666 87.169,113.742 87.000,113.833 87.000 C 113.925 87.000,114.000 86.896,114.000 86.769 C 114.000 86.642,114.112 86.323,114.249 86.061 C 114.386 85.798,114.498 85.419,114.499 85.218 C 114.500 85.017,114.568 84.811,114.651 84.760 C 114.734 84.708,114.854 84.291,114.917 83.833 C 114.980 83.375,115.099 83.000,115.182 83.000 C 115.265 83.000,115.333 82.775,115.333 82.500 C 115.333 82.225,115.402 82.000,115.487 82.000 C 115.571 82.000,115.692 81.512,115.756 80.917 C 115.820 80.321,115.932 79.833,116.005 79.833 C 116.078 79.833,116.191 79.270,116.256 78.581 C 116.320 77.892,116.439 77.288,116.520 77.238 C 116.601 77.188,116.667 76.791,116.667 76.357 C 116.667 75.922,116.741 75.493,116.831 75.402 C 116.921 75.312,117.045 74.244,117.107 73.030 C 117.168 71.815,117.282 70.782,117.359 70.734 C 117.543 70.620,117.543 64.046,117.360 63.933 C 117.282 63.885,117.169 62.750,117.108 61.410 C 117.047 60.070,116.923 58.834,116.832 58.664 C 116.741 58.494,116.667 58.017,116.667 57.604 C 116.667 57.191,116.596 56.809,116.510 56.756 C 116.423 56.703,116.301 56.136,116.238 55.496 C 116.175 54.857,116.067 54.333,115.998 54.333 C 115.929 54.333,115.820 53.846,115.756 53.250 C 115.692 52.654,115.571 52.167,115.487 52.167 C 115.402 52.167,115.333 51.946,115.333 51.677 C 115.333 51.407,115.263 51.143,115.176 51.089 C 115.090 51.036,114.968 50.638,114.905 50.204 C 114.843 49.771,114.736 49.342,114.669 49.250 C 114.601 49.158,114.493 48.863,114.429 48.595 C 114.364 48.326,114.172 47.816,114.001 47.462 C 113.830 47.109,113.641 46.598,113.582 46.328 C 113.523 46.058,113.405 45.794,113.321 45.742 C 113.236 45.690,113.166 45.520,113.166 45.365 C 113.165 45.210,113.053 44.869,112.916 44.606 C 112.779 44.343,112.667 44.025,112.667 43.898 C 112.667 43.771,112.595 43.667,112.508 43.667 C 112.420 43.667,112.299 43.404,112.239 43.083 C 112.179 42.763,112.069 42.500,111.995 42.500 C 111.921 42.500,111.810 42.275,111.750 42.000 C 111.690 41.725,111.571 41.500,111.487 41.500 C 111.402 41.500,111.333 41.387,111.333 41.250 C 111.333 41.112,111.258 41.000,111.167 41.000 C 111.075 41.000,111.000 40.904,111.000 40.787 C 111.000 40.596,110.680 39.936,109.730 38.167 C 109.558 37.846,109.377 37.546,109.328 37.500 C 109.166 37.348,108.167 35.723,108.167 35.612 C 108.167 35.552,108.021 35.333,107.843 35.126 C 107.666 34.919,107.366 34.570,107.177 34.349 C 106.988 34.129,106.833 33.854,106.833 33.738 C 106.833 33.623,106.776 33.503,106.707 33.472 C 106.637 33.442,106.145 32.835,105.614 32.125 C 105.083 31.415,104.577 30.833,104.491 30.833 C 104.404 30.833,104.333 30.725,104.333 30.592 C 104.333 30.086,97.353 23.072,96.221 22.441 C 96.054 22.348,95.831 22.192,95.726 22.094 C 95.621 21.997,95.294 21.729,95.000 21.500 C 94.706 21.271,94.366 20.990,94.244 20.875 C 94.123 20.760,93.950 20.667,93.859 20.667 C 93.769 20.667,93.669 20.610,93.639 20.542 C 93.555 20.352,92.537 19.667,92.340 19.667 C 92.245 19.667,92.167 19.603,92.167 19.526 C 92.167 19.449,91.904 19.244,91.583 19.072 C 91.263 18.899,91.000 18.700,91.000 18.629 C 91.000 18.558,90.916 18.500,90.814 18.500 C 90.712 18.500,90.087 18.162,89.425 17.750 C 88.764 17.337,88.135 17.000,88.028 17.000 C 87.921 17.000,87.833 16.925,87.833 16.833 C 87.833 16.742,87.757 16.667,87.663 16.667 C 87.570 16.667,87.214 16.490,86.872 16.274 C 86.530 16.059,86.063 15.823,85.833 15.752 C 85.604 15.680,85.379 15.572,85.333 15.511 C 85.244 15.392,83.387 14.500,83.229 14.500 C 83.105 14.500,82.040 14.036,81.474 13.735 C 81.231 13.606,80.875 13.500,80.683 13.500 C 80.491 13.500,80.333 13.425,80.333 13.333 C 80.333 13.242,80.176 13.167,79.984 13.167 C 79.791 13.167,79.397 13.059,79.109 12.928 C 78.312 12.566,77.029 12.167,76.661 12.167 C 76.481 12.167,76.333 12.097,76.333 12.012 C 76.333 11.927,75.921 11.806,75.417 11.743 C 74.912 11.680,74.500 11.570,74.500 11.499 C 74.500 11.428,74.256 11.327,73.958 11.275 C 73.660 11.222,72.929 11.094,72.333 10.990 C 71.737 10.886,71.127 10.738,70.977 10.661 C 70.827 10.584,70.058 10.468,69.269 10.404 C 68.479 10.340,67.833 10.229,67.833 10.157 C 67.833 9.826,54.783 9.510,54.582 9.836 M283.758 48.487 C 283.697 48.586,283.464 48.667,283.240 48.667 C 283.016 48.667,282.833 48.734,282.833 48.815 C 282.833 48.897,282.644 49.011,282.413 49.069 C 280.952 49.436,279.536 53.103,280.488 54.055 C 280.586 54.153,280.667 54.368,280.667 54.533 C 280.667 54.698,280.723 54.834,280.792 54.834 C 280.860 54.835,281.044 55.060,281.201 55.334 C 281.357 55.609,281.600 55.833,281.742 55.833 C 281.884 55.833,282.000 55.907,282.000 55.997 C 282.000 56.087,282.188 56.207,282.417 56.265 C 282.646 56.322,282.833 56.436,282.833 56.518 C 282.833 56.600,283.054 56.667,283.323 56.667 C 283.593 56.667,283.865 56.750,283.928 56.852 C 284.093 57.119,287.000 56.768,287.000 56.482 C 287.000 56.400,287.107 56.333,287.238 56.333 C 288.463 56.333,290.314 52.023,289.346 51.425 C 289.262 51.372,289.143 51.105,289.083 50.831 C 289.023 50.557,288.904 50.333,288.820 50.333 C 288.736 50.333,288.667 50.253,288.667 50.155 C 288.667 49.924,288.243 49.500,288.012 49.500 C 287.914 49.500,287.833 49.426,287.833 49.337 C 287.833 49.247,287.646 49.126,287.417 49.068 C 287.188 49.011,287.000 48.906,287.000 48.834 C 287.000 48.522,283.939 48.194,283.758 48.487 M260.333 68.000 L 260.333 83.333 269.170 83.333 L 278.008 83.333 277.962 80.292 L 277.917 77.250 273.125 77.206 L 268.333 77.162 268.333 65.178 C 268.333 58.587,268.288 53.075,268.232 52.930 C 268.144 52.700,267.634 52.667,264.232 52.667 L 260.333 52.667 260.333 68.000 M307.432 58.642 C 307.383 58.721,306.892 58.832,306.341 58.890 C 305.789 58.947,305.205 59.062,305.044 59.145 C 304.882 59.228,304.451 59.436,304.086 59.607 C 303.721 59.777,303.335 59.992,303.228 60.083 C 303.122 60.175,302.794 60.438,302.500 60.667 C 302.206 60.896,301.860 61.182,301.733 61.304 C 301.535 61.491,301.500 61.324,301.500 60.179 L 301.500 58.833 297.583 58.833 L 293.667 58.833 293.667 71.083 L 293.667 83.333 297.574 83.333 L 301.481 83.333 301.532 75.827 C 301.565 71.065,301.644 68.278,301.750 68.202 C 301.842 68.137,302.029 67.858,302.166 67.583 C 303.053 65.799,304.734 65.139,307.285 65.574 C 308.097 65.713,309.414 66.848,309.594 67.566 C 309.654 67.806,309.770 68.044,309.852 68.095 C 309.933 68.145,310.000 68.365,310.000 68.583 C 310.000 68.802,310.075 69.027,310.167 69.083 C 310.274 69.149,310.333 71.724,310.333 76.260 L 310.333 83.333 314.167 83.333 L 318.000 83.333 318.000 74.917 C 318.000 70.028,317.937 66.500,317.850 66.500 C 317.767 66.500,317.647 66.050,317.583 65.500 C 317.519 64.950,317.400 64.500,317.317 64.500 C 317.234 64.500,317.167 64.380,317.167 64.234 C 317.167 63.940,316.655 62.949,316.458 62.861 C 316.390 62.831,316.333 62.711,316.333 62.595 C 316.333 62.479,316.176 62.204,315.983 61.984 C 315.790 61.764,315.471 61.394,315.274 61.162 C 314.808 60.612,313.430 59.667,313.095 59.667 C 312.951 59.667,312.833 59.592,312.833 59.500 C 312.833 59.408,312.698 59.333,312.533 59.333 C 312.368 59.333,312.149 59.249,312.045 59.145 C 311.942 59.042,311.325 58.919,310.674 58.873 C 310.024 58.826,309.452 58.723,309.403 58.644 C 309.287 58.457,307.547 58.456,307.432 58.642 M281.000 71.083 L 281.000 83.333 284.917 83.333 L 288.833 83.333 288.833 71.083 L 288.833 58.833 284.917 58.833 L 281.000 58.833 281.000 71.083 M322.500 67.157 C 322.500 71.735,322.565 75.521,322.645 75.570 C 322.724 75.619,322.841 76.111,322.903 76.663 C 322.965 77.215,323.088 77.667,323.175 77.667 C 323.262 77.667,323.333 77.854,323.333 78.083 C 323.333 78.313,323.402 78.500,323.487 78.500 C 323.571 78.500,323.688 78.720,323.747 78.988 C 323.806 79.257,323.962 79.566,324.094 79.676 C 324.226 79.785,324.333 79.947,324.333 80.036 C 324.333 80.654,327.509 83.000,328.347 83.000 C 328.523 83.000,328.667 83.075,328.667 83.167 C 328.667 83.258,328.877 83.333,329.133 83.333 C 329.390 83.333,329.679 83.413,329.776 83.510 C 330.130 83.863,335.333 83.524,335.333 83.148 C 335.333 83.066,335.453 83.000,335.600 83.000 C 336.212 83.000,337.952 81.939,338.708 81.104 C 338.989 80.795,339.000 80.832,339.000 82.058 L 339.000 83.333 343.001 83.333 L 347.002 83.333 346.959 71.125 L 346.917 58.917 343.000 58.917 L 339.083 58.917 339.000 66.653 C 338.936 72.634,338.869 74.405,338.708 74.458 C 338.594 74.497,338.500 74.651,338.500 74.802 C 338.500 75.158,337.091 76.471,336.569 76.602 C 336.348 76.657,336.167 76.770,336.167 76.851 C 336.167 77.042,333.756 77.047,333.373 76.857 C 331.871 76.116,331.126 75.498,330.913 74.816 C 330.845 74.596,330.705 74.363,330.603 74.298 C 330.471 74.214,330.401 71.916,330.364 66.506 L 330.312 58.833 326.406 58.833 L 322.500 58.833 322.500 67.157 M349.500 59.313 C 349.500 59.577,349.612 59.886,349.750 60.000 C 350.047 60.246,351.333 62.146,351.333 62.338 C 351.333 62.412,351.393 62.497,351.466 62.528 C 351.539 62.558,351.851 62.977,352.161 63.458 C 352.470 63.940,352.780 64.333,352.850 64.333 C 352.920 64.333,353.030 64.502,353.095 64.708 C 353.159 64.915,353.262 65.121,353.323 65.167 C 353.384 65.212,353.692 65.625,354.009 66.083 C 354.325 66.542,354.640 66.942,354.708 66.972 C 354.777 67.003,354.833 67.100,354.833 67.188 C 354.833 67.276,355.133 67.754,355.500 68.250 C 355.867 68.746,356.167 69.233,356.167 69.331 C 356.167 69.430,356.279 69.554,356.417 69.606 C 356.554 69.659,356.667 69.798,356.667 69.914 C 356.667 70.031,356.779 70.219,356.917 70.333 C 357.221 70.586,357.243 71.228,356.958 71.533 C 356.844 71.656,356.606 72.017,356.429 72.336 C 356.253 72.656,356.065 72.954,356.013 73.000 C 355.848 73.143,355.495 73.736,355.392 74.042 C 355.339 74.202,355.233 74.333,355.159 74.333 C 355.084 74.333,354.855 74.671,354.649 75.083 C 354.443 75.496,354.230 75.833,354.175 75.833 C 354.120 75.833,353.928 76.115,353.747 76.458 C 353.566 76.802,353.324 77.182,353.209 77.304 C 353.094 77.425,353.000 77.631,353.000 77.762 C 353.000 77.893,352.937 78.000,352.860 78.000 C 352.782 78.000,352.578 78.262,352.405 78.583 C 352.232 78.904,352.033 79.167,351.962 79.167 C 351.891 79.167,351.833 79.268,351.833 79.391 C 351.833 79.514,351.646 79.833,351.417 80.099 C 351.188 80.365,351.000 80.643,351.000 80.715 C 351.000 80.882,350.292 81.898,350.125 81.972 C 350.056 82.003,350.000 82.109,350.000 82.209 C 350.000 82.309,349.880 82.523,349.734 82.685 C 349.199 83.275,349.563 83.333,353.775 83.333 C 358.126 83.333,358.469 83.265,358.494 82.389 C 358.498 82.282,358.556 82.169,358.625 82.139 C 358.694 82.108,358.881 81.840,359.042 81.542 C 359.773 80.184,359.930 79.917,360.125 79.704 C 360.240 79.579,360.333 79.369,360.333 79.238 C 360.333 79.107,360.391 79.000,360.460 79.000 C 360.530 79.000,360.662 78.857,360.752 78.683 C 360.843 78.508,361.055 78.098,361.225 77.771 C 361.559 77.127,362.315 77.316,362.328 78.047 C 362.331 78.210,362.446 78.387,362.583 78.440 C 362.721 78.492,362.833 78.595,362.833 78.667 C 362.833 78.826,364.610 81.467,364.936 81.793 C 365.063 81.920,365.167 82.131,365.167 82.262 C 365.167 82.393,365.229 82.500,365.305 82.500 C 365.381 82.500,365.544 82.688,365.667 82.917 L 365.890 83.333 370.361 83.333 C 372.821 83.333,374.833 83.289,374.833 83.235 C 374.833 83.132,373.489 81.146,373.321 81.000 C 373.268 80.954,373.083 80.673,372.910 80.375 C 372.737 80.077,372.536 79.833,372.464 79.833 C 372.392 79.833,372.333 79.759,372.333 79.667 C 372.333 79.526,371.198 77.857,370.667 77.215 C 370.575 77.105,370.500 76.965,370.500 76.906 C 370.500 76.847,370.275 76.514,370.000 76.167 C 369.725 75.819,369.500 75.487,369.500 75.427 C 369.500 75.368,369.313 75.117,369.083 74.869 C 368.854 74.622,368.667 74.326,368.667 74.210 C 368.667 74.095,368.610 73.997,368.542 73.993 C 368.473 73.990,368.154 73.578,367.833 73.078 C 367.512 72.578,367.194 72.169,367.125 72.168 C 367.056 72.167,367.000 72.060,367.000 71.929 C 367.000 71.798,366.874 71.564,366.720 71.410 C 366.458 71.148,366.458 71.120,366.720 70.974 C 366.874 70.887,367.000 70.708,367.000 70.575 C 367.000 70.442,367.063 70.333,367.140 70.333 C 367.218 70.333,367.422 70.071,367.595 69.750 C 367.768 69.429,367.967 69.167,368.038 69.167 C 368.109 69.167,368.167 69.060,368.167 68.929 C 368.167 68.798,368.263 68.591,368.381 68.470 C 368.722 68.120,369.667 66.666,369.667 66.492 C 369.667 66.405,369.730 66.333,369.807 66.333 C 369.884 66.333,370.089 66.071,370.262 65.750 C 370.434 65.429,370.626 65.167,370.686 65.167 C 370.747 65.167,370.844 64.979,370.902 64.750 C 370.959 64.521,371.080 64.333,371.170 64.333 C 371.260 64.333,371.333 64.221,371.333 64.083 C 371.333 63.946,371.407 63.833,371.497 63.833 C 371.587 63.833,371.706 63.651,371.762 63.429 C 371.818 63.206,371.969 62.984,372.098 62.934 C 372.228 62.884,372.333 62.761,372.333 62.661 C 372.333 62.495,373.101 61.368,373.352 61.167 C 373.409 61.121,373.508 60.915,373.572 60.708 C 373.636 60.502,373.759 60.333,373.845 60.333 C 373.930 60.333,374.000 60.253,374.000 60.155 C 374.000 60.057,374.113 59.864,374.250 59.726 C 374.387 59.589,374.500 59.332,374.500 59.155 C 374.500 58.654,366.171 58.654,365.915 59.154 C 365.126 60.693,364.877 61.127,364.619 61.413 C 364.455 61.595,364.278 61.914,364.225 62.122 C 364.173 62.330,364.069 62.500,363.993 62.500 C 363.918 62.500,363.805 62.660,363.743 62.856 C 363.681 63.051,363.354 63.647,363.017 64.181 L 362.404 65.151 361.952 64.584 C 361.703 64.273,361.500 63.939,361.500 63.842 C 361.500 63.746,361.437 63.667,361.360 63.667 C 361.282 63.667,361.078 63.404,360.905 63.083 C 360.732 62.762,360.533 62.500,360.462 62.500 C 360.391 62.500,360.333 62.425,360.333 62.334 C 360.333 62.193,359.198 60.523,358.667 59.882 C 358.575 59.771,358.500 59.614,358.500 59.533 C 358.500 58.908,357.985 58.833,353.695 58.833 L 349.500 58.833 349.500 59.313 " stroke="none" fill="#346cfc" fill-rule="evenodd"></path><path id="path1" d="M137.667 68.000 L 137.667 83.333 141.583 83.333 L 145.500 83.333 145.513 74.375 C 145.520 69.448,145.570 65.529,145.623 65.667 C 145.676 65.804,145.839 66.029,145.987 66.167 C 146.134 66.304,146.402 66.699,146.583 67.044 C 146.764 67.389,147.072 67.844,147.268 68.056 C 147.465 68.268,147.677 68.604,147.741 68.804 C 147.804 69.003,147.918 69.167,147.993 69.167 C 148.069 69.167,148.178 69.354,148.235 69.583 C 148.293 69.813,148.413 70.000,148.503 70.000 C 148.593 70.000,148.667 70.112,148.667 70.250 C 148.667 70.387,148.723 70.500,148.792 70.500 C 148.860 70.500,149.130 70.880,149.391 71.345 C 149.652 71.809,149.971 72.230,150.099 72.279 C 150.228 72.329,150.333 72.468,150.333 72.589 C 150.333 72.710,150.436 72.912,150.561 73.038 C 150.687 73.163,150.842 73.431,150.906 73.633 C 150.970 73.835,151.092 74.000,151.178 74.000 C 151.263 74.000,151.333 74.112,151.333 74.250 C 151.333 74.387,151.403 74.500,151.489 74.500 C 151.574 74.500,151.696 74.663,151.759 74.862 C 151.881 75.247,152.025 75.453,152.625 76.107 C 152.831 76.331,153.000 76.627,153.000 76.763 C 153.000 76.899,153.106 77.051,153.235 77.101 C 153.364 77.150,153.516 77.373,153.571 77.595 C 153.627 77.818,153.747 78.000,153.837 78.000 C 153.926 78.000,154.000 78.112,154.000 78.250 C 154.000 78.387,154.070 78.500,154.155 78.500 C 154.241 78.500,154.363 78.663,154.426 78.862 C 154.489 79.061,154.605 79.305,154.685 79.404 C 154.764 79.503,155.017 79.819,155.247 80.107 C 155.478 80.396,155.667 80.673,155.667 80.724 C 155.667 80.839,156.692 82.386,156.844 82.500 C 156.905 82.546,157.008 82.752,157.072 82.958 L 157.189 83.333 161.178 83.333 L 165.167 83.333 165.167 68.000 L 165.167 52.667 161.333 52.667 L 157.500 52.667 157.500 61.583 C 157.500 70.301,157.444 71.251,156.998 70.079 C 156.910 69.848,156.725 69.615,156.586 69.561 C 156.447 69.508,156.333 69.365,156.333 69.244 C 156.333 69.123,156.231 68.921,156.105 68.796 C 155.980 68.670,155.825 68.403,155.761 68.201 C 155.697 67.999,155.574 67.833,155.489 67.833 C 155.403 67.833,155.333 67.721,155.333 67.583 C 155.333 67.446,155.263 67.333,155.178 67.333 C 155.092 67.333,154.970 67.165,154.905 66.958 C 154.841 66.752,154.738 66.546,154.677 66.500 C 154.616 66.454,154.406 66.154,154.211 65.833 C 154.015 65.512,153.719 65.098,153.553 64.912 C 153.386 64.726,153.107 64.295,152.932 63.954 C 152.757 63.613,152.551 63.333,152.474 63.333 C 152.397 63.333,152.333 63.226,152.333 63.095 C 152.333 62.964,152.240 62.755,152.125 62.630 C 151.821 62.298,151.504 61.792,151.392 61.458 C 151.339 61.298,151.226 61.167,151.143 61.167 C 151.060 61.167,150.919 60.998,150.830 60.792 C 150.595 60.249,150.292 59.794,149.958 59.483 C 149.798 59.333,149.667 59.131,149.667 59.034 C 149.667 58.937,149.573 58.755,149.458 58.630 C 149.154 58.298,148.838 57.792,148.726 57.458 C 148.672 57.298,148.567 57.167,148.492 57.167 C 148.418 57.167,148.188 56.829,147.982 56.417 C 147.776 56.004,147.546 55.667,147.470 55.667 C 147.395 55.667,147.333 55.554,147.333 55.417 C 147.333 55.279,147.260 55.167,147.170 55.167 C 147.080 55.167,146.959 54.979,146.902 54.750 C 146.844 54.521,146.747 54.333,146.686 54.333 C 146.626 54.333,146.434 54.071,146.262 53.750 C 146.089 53.429,145.884 53.167,145.807 53.167 C 145.730 53.167,145.667 53.054,145.667 52.917 C 145.667 52.701,145.111 52.667,141.667 52.667 L 137.667 52.667 137.667 68.000 M179.099 58.642 C 179.050 58.720,178.502 58.832,177.881 58.890 C 177.260 58.948,176.726 59.071,176.695 59.164 C 176.664 59.257,176.458 59.333,176.236 59.333 C 176.015 59.333,175.833 59.400,175.833 59.481 C 175.833 59.563,175.578 59.677,175.267 59.736 C 174.955 59.794,174.608 59.953,174.496 60.088 C 174.384 60.223,174.190 60.333,174.064 60.333 C 173.939 60.333,173.742 60.483,173.628 60.667 C 173.513 60.850,173.324 61.000,173.208 61.000 C 172.915 61.000,170.833 63.127,170.833 63.425 C 170.833 63.558,170.770 63.667,170.693 63.667 C 170.617 63.667,170.410 63.966,170.235 64.331 C 170.060 64.697,169.864 64.997,169.799 64.998 C 169.735 64.999,169.630 65.281,169.567 65.625 C 169.504 65.969,169.388 66.292,169.310 66.343 C 169.232 66.394,169.120 66.900,169.060 67.468 C 169.001 68.035,168.888 68.500,168.810 68.500 C 168.731 68.500,168.667 69.662,168.667 71.083 C 168.667 72.504,168.731 73.667,168.810 73.667 C 168.888 73.667,169.001 74.131,169.060 74.699 C 169.120 75.267,169.232 75.773,169.310 75.824 C 169.388 75.875,169.504 76.198,169.567 76.542 C 169.630 76.885,169.753 77.167,169.841 77.167 C 169.928 77.167,170.000 77.279,170.000 77.417 C 170.000 77.554,170.067 77.667,170.148 77.667 C 170.230 77.667,170.345 77.929,170.406 78.250 C 170.466 78.571,170.589 78.833,170.679 78.833 C 170.770 78.833,170.891 78.965,170.949 79.125 C 171.086 79.507,173.078 81.500,173.322 81.500 C 173.426 81.500,173.554 81.612,173.606 81.750 C 173.659 81.887,173.844 82.000,174.018 82.000 C 174.191 82.000,174.333 82.069,174.333 82.153 C 174.333 82.238,174.558 82.356,174.833 82.417 C 175.108 82.477,175.333 82.595,175.333 82.678 C 175.333 82.761,175.633 82.877,176.000 82.936 C 176.367 82.995,176.667 83.108,176.667 83.188 C 176.667 83.268,176.877 83.333,177.133 83.333 C 177.390 83.333,177.694 83.427,177.808 83.542 C 178.096 83.829,183.699 83.819,183.795 83.531 C 183.832 83.422,184.117 83.333,184.431 83.333 C 184.744 83.333,185.000 83.263,185.000 83.177 C 185.000 83.091,185.338 82.970,185.750 82.908 C 186.162 82.846,186.500 82.729,186.500 82.648 C 186.500 82.566,186.582 82.500,186.683 82.500 C 186.993 82.500,188.076 81.947,188.217 81.717 C 188.290 81.598,188.441 81.500,188.553 81.500 C 188.665 81.500,188.943 81.312,189.170 81.082 C 189.397 80.852,189.865 80.390,190.208 80.055 C 190.552 79.720,190.833 79.350,190.833 79.232 C 190.833 79.113,190.927 78.957,191.042 78.883 C 191.286 78.727,191.635 78.207,191.774 77.792 C 191.828 77.631,191.936 77.500,192.014 77.500 C 192.092 77.500,192.205 77.125,192.266 76.667 C 192.327 76.208,192.442 75.833,192.521 75.833 C 192.601 75.833,192.667 75.646,192.667 75.417 L 192.667 75.000 188.495 75.000 C 184.673 75.000,184.314 75.025,184.216 75.292 C 184.157 75.452,184.009 75.643,183.888 75.717 C 183.766 75.790,183.667 75.959,183.667 76.092 C 183.667 76.225,183.558 76.333,183.426 76.333 C 183.294 76.333,183.067 76.502,182.923 76.708 C 182.678 77.058,182.538 77.083,180.868 77.083 C 179.240 77.083,179.039 77.049,178.673 76.708 C 178.452 76.502,178.221 76.333,178.160 76.333 C 177.877 76.333,177.193 75.498,177.089 75.027 C 177.026 74.739,176.905 74.461,176.821 74.409 C 176.736 74.356,176.667 74.056,176.667 73.740 L 176.667 73.167 184.938 73.167 L 193.209 73.167 193.136 70.249 C 193.088 68.300,192.998 67.265,192.865 67.132 C 192.756 67.023,192.667 66.723,192.667 66.467 C 192.667 66.210,192.600 66.000,192.518 66.000 C 192.436 66.000,192.319 65.794,192.258 65.542 C 192.089 64.848,191.620 63.833,191.468 63.833 C 191.394 63.833,191.333 63.748,191.333 63.644 C 191.333 63.540,191.146 63.281,190.917 63.069 C 190.688 62.856,190.500 62.618,190.500 62.539 C 190.500 62.378,189.622 61.500,189.461 61.500 C 189.404 61.500,189.077 61.236,188.735 60.913 C 188.392 60.590,187.937 60.282,187.723 60.228 C 187.509 60.175,187.333 60.064,187.333 59.982 C 187.333 59.900,187.251 59.833,187.150 59.833 C 186.963 59.833,186.009 59.445,185.426 59.131 C 185.247 59.035,184.629 58.918,184.051 58.872 C 183.473 58.826,183.000 58.723,183.000 58.644 C 183.000 58.457,179.214 58.455,179.099 58.642 M229.765 58.643 C 229.716 58.721,229.244 58.830,228.716 58.885 C 228.188 58.939,227.729 59.063,227.697 59.159 C 227.665 59.255,227.458 59.333,227.236 59.333 C 227.015 59.333,226.833 59.408,226.833 59.500 C 226.833 59.592,226.726 59.667,226.595 59.667 C 226.464 59.667,226.255 59.769,226.129 59.895 C 226.004 60.020,225.736 60.175,225.534 60.239 C 225.332 60.303,225.167 60.426,225.167 60.511 C 225.167 60.597,225.073 60.668,224.958 60.669 C 224.684 60.672,223.051 62.444,222.561 63.269 C 222.224 63.838,221.828 64.637,221.334 65.750 C 221.252 65.933,221.135 66.421,221.074 66.833 C 221.013 67.246,220.903 67.658,220.830 67.750 C 220.426 68.261,220.420 74.333,220.824 74.333 C 220.897 74.333,221.008 74.783,221.070 75.333 C 221.132 75.883,221.245 76.333,221.320 76.333 C 221.396 76.333,221.505 76.633,221.564 77.000 C 221.623 77.367,221.745 77.667,221.835 77.667 C 221.926 77.667,222.000 77.817,222.000 78.000 C 222.000 78.183,222.075 78.333,222.167 78.333 C 222.258 78.333,222.333 78.448,222.333 78.589 C 222.333 78.729,222.446 78.887,222.583 78.940 C 222.721 78.992,222.833 79.157,222.833 79.304 C 222.833 79.452,223.002 79.726,223.208 79.914 C 223.415 80.101,223.663 80.399,223.761 80.575 C 223.859 80.750,224.083 80.974,224.260 81.072 C 224.436 81.170,224.736 81.400,224.926 81.583 C 225.355 81.997,225.827 82.313,226.208 82.441 C 226.369 82.495,226.500 82.602,226.500 82.679 C 226.500 82.755,226.762 82.867,227.083 82.928 C 227.404 82.988,227.667 83.104,227.667 83.185 C 227.667 83.267,227.839 83.333,228.050 83.333 C 228.261 83.333,228.522 83.422,228.631 83.531 C 228.916 83.816,233.741 83.826,234.025 83.542 C 234.140 83.427,234.406 83.333,234.617 83.333 C 234.827 83.333,235.000 83.267,235.000 83.185 C 235.000 83.104,235.262 82.988,235.583 82.928 C 235.904 82.867,236.167 82.755,236.167 82.679 C 236.167 82.602,236.298 82.495,236.458 82.441 C 236.863 82.305,237.292 82.002,237.899 81.422 L 238.417 80.928 238.466 82.131 L 238.515 83.333 242.508 83.333 L 246.502 83.333 246.459 71.125 L 246.417 58.917 242.458 58.872 L 238.500 58.827 238.500 60.170 C 238.500 61.646,238.508 61.642,237.545 60.625 C 237.307 60.373,237.011 60.167,236.889 60.167 C 236.767 60.167,236.667 60.097,236.667 60.011 C 236.667 59.926,236.498 59.803,236.292 59.739 C 236.085 59.674,235.879 59.576,235.833 59.519 C 235.596 59.227,234.862 58.962,234.063 58.879 C 233.570 58.828,233.167 58.722,233.167 58.643 C 233.167 58.456,229.880 58.456,229.765 58.643 M194.333 59.217 C 194.333 59.568,195.237 61.007,195.539 61.139 C 195.609 61.169,195.667 61.285,195.667 61.397 C 195.667 61.616,196.038 62.154,196.612 62.769 C 196.811 62.982,197.023 63.308,197.082 63.495 C 197.141 63.681,197.259 63.833,197.345 63.833 C 197.430 63.833,197.500 63.930,197.500 64.047 C 197.500 64.259,197.983 64.946,198.542 65.529 C 198.702 65.696,198.833 65.948,198.833 66.089 C 198.833 66.229,198.946 66.387,199.083 66.440 C 199.221 66.492,199.333 66.640,199.333 66.768 C 199.333 66.896,199.407 67.000,199.497 67.000 C 199.587 67.000,199.707 67.188,199.765 67.417 C 199.822 67.646,199.920 67.833,199.982 67.833 C 200.044 67.833,200.238 68.077,200.414 68.375 C 200.590 68.673,200.795 68.992,200.870 69.083 C 200.945 69.175,201.155 69.430,201.336 69.651 C 201.518 69.871,201.667 70.135,201.667 70.239 C 201.667 70.342,201.815 70.533,201.996 70.664 C 202.178 70.795,202.269 70.942,202.199 70.992 C 202.003 71.133,201.000 72.759,201.000 72.936 C 201.000 73.022,200.850 73.201,200.667 73.333 C 200.483 73.465,200.333 73.664,200.333 73.775 C 200.333 73.886,200.240 74.078,200.125 74.203 C 199.875 74.476,199.540 74.989,199.387 75.333 C 199.325 75.471,199.176 75.643,199.054 75.717 C 198.933 75.790,198.833 75.959,198.833 76.092 C 198.833 76.225,198.760 76.333,198.670 76.333 C 198.580 76.333,198.459 76.521,198.402 76.750 C 198.344 76.979,198.239 77.167,198.168 77.167 C 198.097 77.167,197.995 77.298,197.941 77.458 C 197.829 77.792,197.512 78.298,197.208 78.630 C 197.094 78.755,197.000 78.964,197.000 79.095 C 197.000 79.226,196.937 79.333,196.860 79.333 C 196.782 79.333,196.578 79.596,196.405 79.917 C 196.232 80.237,196.033 80.500,195.962 80.500 C 195.891 80.500,195.833 80.603,195.833 80.730 C 195.833 80.856,195.728 81.047,195.599 81.154 C 195.470 81.261,195.241 81.608,195.091 81.924 C 194.941 82.241,194.746 82.500,194.659 82.500 C 194.571 82.500,194.500 82.688,194.500 82.917 L 194.500 83.333 198.750 83.333 C 201.586 83.333,203.000 83.276,203.000 83.160 C 203.000 83.064,203.153 82.822,203.340 82.621 C 203.527 82.421,203.722 82.086,203.775 81.878 C 203.827 81.670,203.936 81.500,204.018 81.500 C 204.100 81.500,204.167 81.393,204.167 81.262 C 204.167 81.131,204.260 80.924,204.375 80.803 C 204.638 80.524,205.298 79.394,205.549 78.792 C 205.654 78.540,205.798 78.333,205.870 78.333 C 205.941 78.333,206.000 78.201,206.000 78.040 C 206.000 77.394,206.618 77.297,207.028 77.879 C 207.236 78.175,207.502 78.516,207.620 78.637 C 207.737 78.758,207.833 78.930,207.833 79.019 C 207.833 79.191,208.021 79.449,208.625 80.107 C 208.831 80.331,209.000 80.575,209.000 80.649 C 209.000 80.722,209.150 80.955,209.333 81.167 C 209.517 81.378,209.667 81.635,209.667 81.739 C 209.667 81.842,209.817 82.035,210.000 82.167 C 210.183 82.299,210.333 82.486,210.333 82.583 C 210.333 82.680,210.484 82.888,210.669 83.046 C 211.145 83.454,219.667 83.489,219.667 83.083 C 219.667 82.946,219.592 82.833,219.500 82.833 C 219.408 82.833,219.333 82.721,219.333 82.583 C 219.333 82.446,219.260 82.333,219.170 82.333 C 219.080 82.333,218.959 82.146,218.902 81.917 C 218.844 81.688,218.746 81.500,218.685 81.500 C 218.623 81.500,218.430 81.256,218.257 80.958 C 218.084 80.660,217.843 80.357,217.721 80.283 C 217.600 80.210,217.500 80.041,217.500 79.908 C 217.500 79.775,217.442 79.667,217.371 79.667 C 217.300 79.667,217.101 79.404,216.928 79.083 C 216.756 78.762,216.551 78.500,216.474 78.500 C 216.397 78.500,216.333 78.403,216.333 78.284 C 216.333 78.055,215.980 77.544,215.395 76.929 C 215.200 76.723,214.988 76.393,214.925 76.194 C 214.862 75.996,214.741 75.833,214.655 75.833 C 214.570 75.833,214.500 75.759,214.500 75.667 C 214.500 75.526,213.365 73.857,212.834 73.215 C 212.742 73.105,212.667 72.942,212.667 72.854 C 212.667 72.766,212.610 72.669,212.542 72.639 C 211.901 72.354,211.433 70.500,212.002 70.500 C 212.080 70.500,212.197 70.335,212.261 70.133 C 212.325 69.931,212.492 69.651,212.632 69.511 C 212.772 69.370,213.151 68.842,213.474 68.336 C 213.798 67.830,214.160 67.318,214.281 67.196 C 214.401 67.075,214.500 66.869,214.500 66.738 C 214.500 66.607,214.570 66.500,214.655 66.500 C 214.741 66.500,214.863 66.335,214.927 66.133 C 214.992 65.931,215.150 65.660,215.279 65.531 C 215.408 65.401,215.780 64.879,216.106 64.371 C 216.431 63.862,216.803 63.340,216.932 63.211 C 217.061 63.082,217.167 62.869,217.167 62.738 C 217.167 62.607,217.242 62.500,217.333 62.500 C 217.425 62.500,217.500 62.402,217.500 62.282 C 217.500 62.162,217.701 61.822,217.946 61.526 C 218.441 60.929,218.774 60.400,218.933 59.958 C 218.991 59.798,219.105 59.667,219.186 59.667 C 219.267 59.667,219.333 59.479,219.333 59.250 L 219.333 58.833 215.204 58.833 C 210.662 58.833,210.674 58.830,210.402 59.914 C 210.345 60.145,210.242 60.333,210.175 60.333 C 210.108 60.333,209.910 60.632,209.735 60.998 C 209.560 61.364,209.360 61.664,209.292 61.665 C 209.223 61.666,209.167 61.813,209.167 61.992 C 209.167 62.170,209.073 62.377,208.958 62.450 C 208.843 62.523,208.639 62.808,208.504 63.083 C 208.369 63.358,208.126 63.762,207.963 63.981 C 207.800 64.199,207.667 64.518,207.667 64.689 C 207.667 65.220,207.106 65.036,206.707 64.374 C 205.995 63.195,205.916 63.083,205.708 62.950 C 205.594 62.877,205.500 62.708,205.500 62.575 C 205.500 62.442,205.442 62.333,205.371 62.333 C 205.300 62.333,205.101 62.071,204.928 61.750 C 204.756 61.429,204.551 61.167,204.474 61.167 C 204.397 61.167,204.333 61.089,204.333 60.993 C 204.333 60.782,203.693 59.852,203.292 59.481 C 203.131 59.332,203.000 59.126,203.000 59.022 C 203.000 58.886,201.783 58.833,198.667 58.833 L 194.333 58.833 194.333 59.217 M182.563 65.330 C 182.657 65.423,182.866 65.500,183.027 65.500 C 183.353 65.500,184.667 66.784,184.667 67.103 C 184.667 67.214,184.743 67.331,184.837 67.362 C 184.931 67.394,185.053 67.700,185.109 68.043 L 185.210 68.667 180.938 68.667 L 176.667 68.667 176.667 68.250 C 176.667 68.021,176.734 67.833,176.815 67.833 C 176.897 67.833,177.013 67.636,177.074 67.395 C 177.214 66.837,178.342 65.713,178.904 65.572 C 179.140 65.512,179.333 65.402,179.333 65.326 C 179.333 64.988,182.224 64.991,182.563 65.330 M235.298 65.750 C 235.363 65.842,235.679 66.062,236.000 66.240 C 236.959 66.772,238.000 68.079,238.000 68.750 C 238.000 68.872,238.094 69.003,238.208 69.042 C 238.470 69.129,238.507 73.281,238.248 73.464 C 238.156 73.530,237.931 73.882,237.748 74.247 C 237.566 74.613,237.323 75.012,237.208 75.134 C 237.094 75.257,237.000 75.425,237.000 75.509 C 237.000 75.592,236.813 75.707,236.583 75.765 C 236.354 75.822,236.167 75.922,236.167 75.986 C 236.167 76.120,234.984 76.667,234.694 76.667 C 234.587 76.667,234.500 76.742,234.500 76.833 C 234.500 76.925,234.162 77.000,233.750 77.000 C 233.338 77.000,233.000 76.925,233.000 76.833 C 233.000 76.742,232.737 76.667,232.417 76.667 C 232.096 76.667,231.833 76.600,231.833 76.518 C 231.833 76.436,231.636 76.320,231.394 76.259 C 230.905 76.136,229.507 74.867,229.503 74.542 C 229.501 74.427,229.425 74.333,229.333 74.333 C 229.242 74.333,229.166 74.202,229.166 74.042 C 229.165 73.881,229.049 73.528,228.908 73.257 C 228.612 72.691,228.523 69.465,228.793 69.122 C 228.881 69.009,229.005 68.704,229.067 68.444 C 229.129 68.184,229.365 67.801,229.590 67.592 C 229.816 67.383,230.000 67.143,230.000 67.058 C 230.000 66.974,230.225 66.772,230.500 66.610 C 230.775 66.447,231.000 66.244,231.000 66.157 C 231.000 66.071,231.150 66.000,231.333 66.000 C 231.517 66.000,231.667 65.930,231.667 65.845 C 231.667 65.502,235.058 65.414,235.298 65.750 " stroke="none" fill="#040404" fill-rule="evenodd"></path><path id="path2" d="" stroke="none" fill="#203c100" fill-rule="evenodd"></path><path id="path3" d="" stroke="none" fill="#203c100" fill-rule="evenodd"></path><path id="path4" d="" stroke="none" fill="#203c100" fill-rule="evenodd"></path><path id="path5" d="" stroke="none" fill="#203c100" fill-rule="evenodd"></path><path id="path6" d="" stroke="none" fill="#203c100" fill-rule="evenodd"></path><path id="path7" d="" stroke="none" fill="#203c100" fill-rule="evenodd"></path><path id="path8" d="" stroke="none" fill="#203c100" fill-rule="evenodd"></path></g></svg>