<?xml version="1.0" encoding="UTF-8"?>
<!DOCTYPE svg PUBLIC "-//W3C//DTD SVG 1.1//EN" "http://www.w3.org/Graphics/SVG/1.1/DTD/svg11.dtd">
<svg xmlns="http://www.w3.org/2000/svg" version="1.1" width="1500px" height="500px" style="shape-rendering:geometricPrecision; text-rendering:geometricPrecision; image-rendering:optimizeQuality; fill-rule:evenodd; clip-rule:evenodd" xmlns:xlink="http://www.w3.org/1999/xlink">
<g><path style="opacity:0.984" fill="#3356d5" d="M 226.5,55.5 C 292.016,92.3128 357.35,129.646 422.5,167.5C 423.833,199.5 423.833,231.5 422.5,263.5C 357.631,225.9 292.631,188.567 227.5,151.5C 162.833,188.833 98.1667,226.167 33.5,263.5C 32.1667,231.5 32.1667,199.5 33.5,167.5C 98.0922,130.379 162.425,93.0454 226.5,55.5 Z"/></g>
<g><path style="opacity:0.956" fill="#fefefe" d="M 1089.5,179.5 C 1113.48,178.528 1121.64,189.195 1114,211.5C 1106.03,218.134 1096.87,220.301 1086.5,218C 1073.91,213.323 1069.41,204.49 1073,191.5C 1076.7,184.959 1082.2,180.959 1089.5,179.5 Z"/></g>
<g><path style="opacity:0.984" fill="#3456d5" d="M 226.5,186.5 C 292.166,223.313 357.499,260.813 422.5,299C 423.825,318.768 423.825,338.602 422.5,358.5C 412.833,364.333 403.167,370.167 393.5,376C 392.5,376.667 391.5,376.667 390.5,376C 336.493,344.328 282.159,313.161 227.5,282.5C 173.371,313.467 119.371,344.634 65.5,376C 62.9832,376.257 60.6498,375.59 58.5,374C 50,368.833 41.5,363.667 33,358.5C 32.1669,338.492 32.3336,318.492 33.5,298.5C 98.0922,261.379 162.425,224.045 226.5,186.5 Z"/></g>
<g><path style="opacity:0.991" fill="#3356d5" d="M 468.5,199.5 C 479.505,199.333 490.505,199.5 501.5,200C 516,217.167 530.5,234.333 545,251.5C 545.5,234.17 545.667,216.837 545.5,199.5C 558.5,199.5 571.5,199.5 584.5,199.5C 584.5,238.833 584.5,278.167 584.5,317.5C 573.162,317.667 561.828,317.5 550.5,317C 536.453,299.741 522.286,282.575 508,265.5C 507.5,282.83 507.333,300.163 507.5,317.5C 494.5,317.5 481.5,317.5 468.5,317.5C 468.5,278.167 468.5,238.833 468.5,199.5 Z"/></g>
<g><path style="opacity:0.984" fill="#fefefe" d="M 973.5,199.5 C 986.833,199.5 1000.17,199.5 1013.5,199.5C 1013.5,228.5 1013.5,257.5 1013.5,286.5C 1031.17,286.5 1048.83,286.5 1066.5,286.5C 1066.5,296.833 1066.5,307.167 1066.5,317.5C 1035.5,317.5 1004.5,317.5 973.5,317.5C 973.5,278.167 973.5,238.833 973.5,199.5 Z"/></g>
<g><path style="opacity:0.988" fill="#3356d5" d="M 644.5,223.5 C 683.017,223.346 701.35,242.346 699.5,280.5C 678.489,280.167 657.489,280.5 636.5,281.5C 639.001,285.76 642.667,288.594 647.5,290C 656.284,291.808 664.284,290.142 671.5,285C 672.5,284.333 673.5,284.333 674.5,285C 680.667,291.167 686.833,297.333 693,303.5C 693.667,304.167 693.667,304.833 693,305.5C 681.716,315.707 668.383,320.374 653,319.5C 629.948,320.314 612.615,310.981 601,291.5C 591.085,252.965 605.585,230.299 644.5,223.5 Z M 645.5,250.5 C 654.2,249.179 660.2,252.513 663.5,260.5C 654.184,261.665 644.851,261.832 635.5,261C 637.353,255.982 640.686,252.482 645.5,250.5 Z"/></g>
<g><path style="opacity:0.986" fill="#3356d5" d="M 851.5,223.5 C 862.065,223.507 872.398,225.007 882.5,228C 897.083,234.302 904.916,245.469 906,261.5C 906.5,280.164 906.667,298.83 906.5,317.5C 894.5,317.5 882.5,317.5 870.5,317.5C 870.665,314.482 870.498,311.482 870,308.5C 860.68,318.603 849.18,322.103 835.5,319C 815.297,313.767 807.464,300.933 812,280.5C 816.734,270.791 824.567,265.291 835.5,264C 846.134,262.89 856.801,262.223 867.5,262C 866.426,258.841 864.426,256.507 861.5,255C 849.718,251.546 838.551,253.046 828,259.5C 823.146,251.634 818.646,243.468 814.5,235C 817.718,232.223 821.385,230.223 825.5,229C 834.146,226.398 842.813,224.565 851.5,223.5 Z M 854.5,281.5 C 858.833,281.5 863.167,281.5 867.5,281.5C 868.731,290.431 864.898,295.431 856,296.5C 848.969,295.095 846.636,291.095 849,284.5C 850.876,283.391 852.709,282.391 854.5,281.5 Z"/></g>
<g><path style="opacity:0.969" fill="#fefefe" d="M 1190.5,223.5 C 1218.84,224.011 1232.84,238.511 1232.5,267C 1232.38,283.073 1232.38,299.906 1232.5,317.5C 1219.5,317.5 1206.5,317.5 1193.5,317.5C 1193.92,299.458 1193.42,281.458 1192,263.5C 1190.66,258.66 1187.5,256.327 1182.5,256.5C 1174.6,257.234 1170.1,261.568 1169,269.5C 1168.5,285.497 1168.33,301.497 1168.5,317.5C 1155.5,317.5 1142.5,317.5 1129.5,317.5C 1129.5,286.833 1129.5,256.167 1129.5,225.5C 1141.83,225.5 1154.17,225.5 1166.5,225.5C 1166.34,228.187 1166.5,230.854 1167,233.5C 1173.98,227.905 1181.81,224.571 1190.5,223.5 Z"/></g>
<g><path style="opacity:0.984" fill="#3356d5" d="M 699.5,226.5 C 713.994,225.339 728.661,225.172 743.5,226C 747.79,232.08 751.957,238.247 756,244.5C 760.113,238.053 764.613,231.886 769.5,226C 782.846,225.167 796.179,225.334 809.5,226.5C 798.5,241.167 787.5,255.833 776.5,270.5C 787.64,286.14 798.973,301.64 810.5,317C 795.489,317.833 780.489,317.666 765.5,316.5C 762.162,310.488 758.328,304.821 754,299.5C 749.711,305.245 745.544,311.079 741.5,317C 727.167,317.667 712.833,317.667 698.5,317C 710.167,302 721.833,287 733.5,272C 722.024,256.855 710.691,241.688 699.5,226.5 Z"/></g>
<g><path style="opacity:0.965" fill="#fefefe" d="M 1075.5,225.5 C 1088.5,225.5 1101.5,225.5 1114.5,225.5C 1114.5,256.167 1114.5,286.833 1114.5,317.5C 1101.5,317.5 1088.5,317.5 1075.5,317.5C 1075.5,286.833 1075.5,256.167 1075.5,225.5 Z"/></g>
<g><path style="opacity:0.974" fill="#fefefe" d="M 1247.5,225.5 C 1260.17,225.5 1272.83,225.5 1285.5,225.5C 1285.09,243.209 1285.59,260.875 1287,278.5C 1287.97,284.139 1291.3,286.805 1297,286.5C 1303.83,286.009 1307.83,282.342 1309,275.5C 1309.5,258.837 1309.67,242.17 1309.5,225.5C 1322.5,225.5 1335.5,225.5 1348.5,225.5C 1348.5,256.167 1348.5,286.833 1348.5,317.5C 1336.17,317.5 1323.83,317.5 1311.5,317.5C 1311.66,315.143 1311.5,312.81 1311,310.5C 1295.98,321.169 1280.15,322.335 1263.5,314C 1254.92,307.681 1249.75,299.181 1248,288.5C 1247.5,267.503 1247.33,246.503 1247.5,225.5 Z"/></g>
<g><path style="opacity:0.965" fill="#fefefe" d="M 1355.5,225.5 C 1370.18,225.167 1384.85,225.501 1399.5,226.5C 1403.5,232.167 1407.5,237.833 1411.5,243.5C 1416.19,237.972 1420.52,232.139 1424.5,226C 1438.18,225.167 1451.85,225.334 1465.5,226.5C 1454.5,241.167 1443.5,255.833 1432.5,270.5C 1443.64,286.14 1454.97,301.64 1466.5,317C 1451.5,317.667 1436.5,317.667 1421.5,317C 1417.79,311.081 1413.96,305.248 1410,299.5C 1405.5,305.333 1401,311.167 1396.5,317C 1382.5,317.667 1368.5,317.667 1354.5,317C 1366.03,302.309 1377.36,287.476 1388.5,272.5C 1377.23,256.95 1366.23,241.284 1355.5,225.5 Z"/></g>
<g><path style="opacity:0.98" fill="#3356d5" d="M 226.5,319.5 C 271.105,344.471 315.438,369.971 359.5,396C 332.248,412.249 304.748,428.082 277,443.5C 260.597,434.047 244.097,424.714 227.5,415.5C 211.663,424.92 195.663,434.086 179.5,443C 178.5,443.667 177.5,443.667 176.5,443C 150.167,427.833 123.833,412.667 97.5,397.5C 96.479,396.998 96.3123,396.332 97,395.5C 140.476,370.518 183.643,345.185 226.5,319.5 Z"/></g>
</svg>
