<svg id="svg" version="1.1" xmlns="http://www.w3.org/2000/svg" xmlns:xlink="http://www.w3.org/1999/xlink" width="400" height="400" viewBox="0, 0, 400,400"><g id="svgg"><path id="path0" d="M180.091 48.553 C 136.353 51.196,91.781 74.565,71.941 105.255 C 31.705 167.494,77.702 248.945,151.953 246.940 C 181.080 246.154,211.926 229.591,218.177 211.381 C 228.158 182.306,193.739 158.753,169.630 178.160 C 145.673 197.444,111.463 176.699,119.222 147.593 C 123.855 130.212,151.462 112.914,179.259 109.975 C 267.450 100.651,316.281 208.435,251.430 269.278 C 218.710 299.977,204.506 327.352,212.492 344.324 C 224.401 369.634,293.523 327.530,322.454 277.343 C 382.752 172.744,300.932 41.252,180.091 48.553 " stroke="none" fill="#fbfbfc" fill-rule="evenodd"></path><path id="path1" d="M184.815 0.401 C 175.335 1.126,173.625 1.360,162.037 3.526 C 148.772 6.005,132.324 10.986,121.667 15.751 C 108.540 21.619,102.147 24.980,92.593 31.036 C 3.502 87.506,-26.754 207.260,25.199 297.778 C 40.843 325.033,60.768 346.977,85.719 364.430 C 88.813 366.594,98.778 372.963,99.069 372.963 C 99.142 372.963,100.672 373.814,102.471 374.855 C 160.147 408.225,239.853 408.225,297.529 374.855 C 299.328 373.814,300.858 372.963,300.931 372.963 C 301.221 372.963,311.182 366.597,314.252 364.449 C 360.045 332.412,390.159 283.602,398.119 228.519 C 400.844 209.661,400.561 185.442,397.400 166.852 C 393.577 144.374,385.438 121.001,375.088 102.778 C 357.905 72.523,335.186 48.612,306.194 30.266 C 303.387 28.490,301.020 27.037,300.932 27.037 C 300.845 27.037,299.891 26.516,298.813 25.880 C 279.534 14.503,256.946 6.744,228.889 1.859 C 219.553 0.234,196.825 -0.518,184.815 0.401 M208.889 49.217 C 334.757 66.282,387.459 219.276,298.465 309.259 C 265.716 342.373,228.155 360.139,215.448 348.525 C 201.604 335.872,215.856 301.904,247.112 273.059 C 270.906 251.100,280.835 230.286,280.904 202.222 C 281.093 125.969,194.914 82.559,134.095 128.272 C 122.857 136.718,118.665 144.121,118.751 155.370 C 118.945 180.867,148.033 194.886,167.963 179.090 C 175.954 172.756,180.782 170.927,189.444 170.950 C 217.182 171.023,230.517 204.470,210.495 223.748 C 188.024 245.385,150.778 253.085,119.542 242.551 C 64.726 224.065,40.290 159.567,69.097 109.401 C 85.519 80.804,123.875 56.748,163.488 50.200 C 177.174 47.939,196.388 47.522,208.889 49.217 " stroke="none" fill="#3c76fc" fill-rule="evenodd"></path><path id="path2" d="M210.350 223.611 L 209.074 225.000 210.463 223.724 C 211.227 223.022,211.852 222.397,211.852 222.335 C 211.852 222.052,211.538 222.318,210.350 223.611 " stroke="none" fill="#97bffc" fill-rule="evenodd"></path><path id="path3" d="M281.212 201.852 C 281.212 202.769,281.284 203.144,281.372 202.685 C 281.461 202.227,281.461 201.477,281.372 201.019 C 281.284 200.560,281.212 200.935,281.212 201.852 M85.185 221.667 C 85.876 222.380,86.525 222.963,86.627 222.963 C 86.729 222.963,86.247 222.380,85.556 221.667 C 84.865 220.954,84.216 220.370,84.114 220.370 C 84.012 220.370,84.494 220.954,85.185 221.667 " stroke="none" fill="#7dadfc" fill-rule="evenodd"></path><path id="path4" d="M182.500 48.410 C 182.958 48.498,183.708 48.498,184.167 48.410 C 184.625 48.321,184.250 48.249,183.333 48.249 C 182.417 48.249,182.042 48.321,182.500 48.410 M194.907 48.403 C 195.264 48.497,195.847 48.497,196.204 48.403 C 196.560 48.310,196.269 48.234,195.556 48.234 C 194.843 48.234,194.551 48.310,194.907 48.403 M297.593 93.333 C 299.008 94.759,300.249 95.926,300.351 95.926 C 300.452 95.926,299.378 94.759,297.963 93.333 C 296.548 91.907,295.307 90.741,295.205 90.741 C 295.103 90.741,296.178 91.907,297.593 93.333 M252.577 134.907 C 253.485 135.875,254.277 136.667,254.336 136.667 C 254.614 136.667,254.320 136.334,252.685 134.799 L 250.926 133.148 252.577 134.907 M255.556 137.894 C 255.556 137.957,256.097 138.499,256.759 139.097 L 257.963 140.185 256.875 138.981 C 255.861 137.859,255.556 137.608,255.556 137.894 M57.123 150.370 C 57.123 151.083,57.199 151.375,57.292 151.019 C 57.386 150.662,57.386 150.079,57.292 149.722 C 57.199 149.366,57.123 149.657,57.123 150.370 M118.254 154.630 C 118.257 155.648,118.329 156.021,118.414 155.458 C 118.499 154.895,118.497 154.062,118.409 153.606 C 118.321 153.150,118.251 153.611,118.254 154.630 M188.056 171.009 C 188.718 171.091,189.801 171.091,190.463 171.009 C 191.125 170.927,190.583 170.859,189.259 170.859 C 187.935 170.859,187.394 170.927,188.056 171.009 M281.197 198.148 C 281.197 198.861,281.273 199.153,281.366 198.796 C 281.460 198.440,281.460 197.856,281.366 197.500 C 281.273 197.144,281.197 197.435,281.197 198.148 M281.197 205.556 C 281.197 206.269,281.273 206.560,281.366 206.204 C 281.460 205.847,281.460 205.264,281.366 204.907 C 281.273 204.551,281.197 204.843,281.197 205.556 M148.246 247.303 C 148.809 247.388,149.642 247.386,150.098 247.298 C 150.553 247.210,150.093 247.140,149.074 247.143 C 148.056 247.146,147.683 247.218,148.246 247.303 M300.532 306.759 L 299.444 307.963 300.648 306.875 C 301.310 306.277,301.852 305.735,301.852 305.671 C 301.852 305.385,301.546 305.637,300.532 306.759 " stroke="none" fill="#a4c4fc" fill-rule="evenodd"></path><path id="path5" d="M342.679 201.852 C 342.679 202.565,342.755 202.856,342.848 202.500 C 342.941 202.144,342.941 201.560,342.848 201.204 C 342.755 200.847,342.679 201.139,342.679 201.852 " stroke="none" fill="#689ffc" fill-rule="evenodd"></path><path id="path6" d="M254.616 266.019 L 252.778 267.963 254.722 266.125 C 256.529 264.417,256.837 264.074,256.560 264.074 C 256.502 264.074,255.627 264.949,254.616 266.019 " stroke="none" fill="#5c94fc" fill-rule="evenodd"></path><path id="path7" d="" stroke="none" fill="#518dfc" fill-rule="evenodd"></path><path id="path8" d="M297.407 310.185 C 296.508 311.102,295.855 311.852,295.957 311.852 C 296.059 311.852,296.878 311.102,297.778 310.185 C 298.677 309.269,299.330 308.519,299.228 308.519 C 299.126 308.519,298.307 309.269,297.407 310.185 " stroke="none" fill="#4c84fc" fill-rule="evenodd"></path></g></svg>